<svg role="img" aria-label="PURSEC" xmlns="http://www.w3.org/2000/svg" viewBox="-58 -79 380 380"><defs><linearGradient id="gum" x1="0" y1="0" x2="0" y2="1"><stop offset="0" stop-color="#B66DFF"/><stop offset=".5" stop-color="#9B3DF5"/><stop offset="1" stop-color="#7A1FE0"/></linearGradient></defs><g transform=""><path d="M252.4 23.0 L249.0 17.5 L245.5 13.2 L241.2 9.2 L237.5 6.3 L231.2 2.5 L227.2 0.6 L222.8 -1.0 L217.5 -2.4 L201.0 -5.6 L75.5 -27.6 L68.2 -28.2 L64.2 -28.0 L58.8 -27.0 L54.8 -25.4 L49.8 -22.5 L45.5 -18.8 L42.0 -14.5 L38.4 -8.8 L-35.4 130.0 L-40.6 140.8 L-42.0 144.8 L-42.8 148.2 L-43.2 151.5 L-43.1 156.0 L-42.5 159.0 L-41.0 163.0 L-39.0 166.5 L-36.5 169.5 L-35.0 170.8 L-30.0 174.2 L-25.0 176.2 L-15.0 178.6 L19.2 184.6 L25.0 185.2 L31.5 185.2 L37.2 184.2 L42.8 181.9 L47.8 178.6 L51.2 175.2 L53.7 172.2 L56.9 167.5 L66.7 149.8 L69.8 144.8 L72.8 141.4 L75.2 139.6 L77.8 138.5 L82.5 137.8 L89.5 138.4 L144.8 148.1 L156.8 149.5 L165.0 149.5 L171.8 148.8 L177.0 147.9 L182.8 146.4 L187.8 144.8 L196.0 141.4 L205.0 136.6 L213.2 130.9 L221.0 124.2 L226.1 118.8 L230.8 112.8 L235.9 104.8 L244.4 89.0 L251.7 74.8 L254.5 68.0 L256.5 62.0 L257.8 55.8 L258.5 49.0 L258.2 42.5 L257.2 35.5 L255.3 29.2Z M88.5 71.5 L88.7 69.8 L89.6 67.8 L100.9 46.8 L102.0 45.2 L103.5 43.8 L106.2 42.6 L108.8 42.7 L161.5 52.0 L163.5 52.7 L165.2 53.8 L166.5 55.5 L167.1 57.2 L167.1 59.5 L166.1 63.0 L161.7 71.5 L159.0 76.0 L156.0 79.2 L154.0 80.8 L151.5 82.1 L147.5 83.3 L144.8 83.5 L141.5 83.1 L93.5 74.6 L90.0 73.5 L89.1 72.8Z" transform="translate(5 9)" fill="#3A0F78" fill-rule="evenodd"/><path d="M252.4 23.0 L249.0 17.5 L245.5 13.2 L241.2 9.2 L237.5 6.3 L231.2 2.5 L227.2 0.6 L222.8 -1.0 L217.5 -2.4 L201.0 -5.6 L75.5 -27.6 L68.2 -28.2 L64.2 -28.0 L58.8 -27.0 L54.8 -25.4 L49.8 -22.5 L45.5 -18.8 L42.0 -14.5 L38.4 -8.8 L-35.4 130.0 L-40.6 140.8 L-42.0 144.8 L-42.8 148.2 L-43.2 151.5 L-43.1 156.0 L-42.5 159.0 L-41.0 163.0 L-39.0 166.5 L-36.5 169.5 L-35.0 170.8 L-30.0 174.2 L-25.0 176.2 L-15.0 178.6 L19.2 184.6 L25.0 185.2 L31.5 185.2 L37.2 184.2 L42.8 181.9 L47.8 178.6 L51.2 175.2 L53.7 172.2 L56.9 167.5 L66.7 149.8 L69.8 144.8 L72.8 141.4 L75.2 139.6 L77.8 138.5 L82.5 137.8 L89.5 138.4 L144.8 148.1 L156.8 149.5 L165.0 149.5 L171.8 148.8 L177.0 147.9 L182.8 146.4 L187.8 144.8 L196.0 141.4 L205.0 136.6 L213.2 130.9 L221.0 124.2 L226.1 118.8 L230.8 112.8 L235.9 104.8 L244.4 89.0 L251.7 74.8 L254.5 68.0 L256.5 62.0 L257.8 55.8 L258.5 49.0 L258.2 42.5 L257.2 35.5 L255.3 29.2Z M88.5 71.5 L88.7 69.8 L89.6 67.8 L100.9 46.8 L102.0 45.2 L103.5 43.8 L106.2 42.6 L108.8 42.7 L161.5 52.0 L163.5 52.7 L165.2 53.8 L166.5 55.5 L167.1 57.2 L167.1 59.5 L166.1 63.0 L161.7 71.5 L159.0 76.0 L156.0 79.2 L154.0 80.8 L151.5 82.1 L147.5 83.3 L144.8 83.5 L141.5 83.1 L93.5 74.6 L90.0 73.5 L89.1 72.8Z" fill="url(#gum)" fill-rule="evenodd"/></g><g transform="translate(224.0 156.0) rotate(-6.0) scale(0.6) translate(-723.625 -113.875)"><path d="M843.2 -0.8 L841.0 -2.9 L839.0 -4.3 L836.0 -5.9 L833.2 -7.0 L827.8 -8.0 L821.2 -8.0 L808.8 -6.3 L687.5 12.9 L679.2 14.6 L674.0 16.0 L664.2 19.8 L659.0 22.6 L653.8 26.0 L648.2 30.1 L643.2 34.5 L636.7 41.5 L633.3 45.8 L628.7 52.5 L625.3 58.5 L622.6 64.5 L620.8 69.8 L617.6 82.2 L615.2 97.5 L614.2 106.2 L614.2 115.0 L614.7 119.2 L615.8 125.0 L617.2 129.8 L619.6 135.5 L624.1 144.5 L625.0 147.0 L625.2 149.2 L624.6 152.0 L622.8 154.4 L620.2 156.3 L613.0 160.8 L608.6 165.0 L605.6 169.8 L603.9 173.8 L602.8 177.5 L601.4 184.2 L599.2 198.0 L598.2 205.8 L598.0 210.5 L598.6 216.5 L599.9 221.0 L602.2 225.5 L604.8 228.8 L606.5 230.4 L609.2 232.3 L613.5 234.3 L618.8 235.6 L625.5 235.8 L640.0 233.8 L758.2 215.1 L766.0 213.6 L771.8 212.2 L776.8 210.5 L782.8 207.9 L788.0 205.1 L794.0 201.2 L798.5 197.9 L803.5 193.5 L807.2 189.8 L811.4 185.0 L815.5 179.5 L819.3 173.5 L822.2 168.2 L825.3 161.0 L827.4 154.5 L829.1 147.5 L830.6 139.2 L832.5 125.5 L833.0 120.0 L832.8 111.2 L831.9 105.2 L830.2 99.0 L827.2 91.5 L822.9 83.0 L822.1 80.5 L821.9 78.0 L822.7 75.5 L824.2 73.5 L827.0 71.4 L834.2 67.0 L838.1 63.5 L839.5 61.8 L841.4 58.5 L842.8 55.5 L844.0 51.8 L845.8 42.8 L848.6 25.5 L849.2 19.2 L849.2 14.0 L848.4 9.0 L847.4 5.8 L845.6 2.2Z" fill="#050409" stroke="#050409" stroke-width="36.66666666666667" stroke-linejoin="round"/><path d="M843.2 -0.8 L841.0 -2.9 L839.0 -4.3 L836.0 -5.9 L833.2 -7.0 L827.8 -8.0 L821.2 -8.0 L808.8 -6.3 L687.5 12.9 L679.2 14.6 L674.0 16.0 L664.2 19.8 L659.0 22.6 L653.8 26.0 L648.2 30.1 L643.2 34.5 L636.7 41.5 L633.3 45.8 L628.7 52.5 L625.3 58.5 L622.6 64.5 L620.8 69.8 L617.6 82.2 L615.2 97.5 L614.2 106.2 L614.2 115.0 L614.7 119.2 L615.8 125.0 L617.2 129.8 L619.6 135.5 L624.1 144.5 L625.0 147.0 L625.2 149.2 L624.6 152.0 L622.8 154.4 L620.2 156.3 L613.0 160.8 L608.6 165.0 L605.6 169.8 L603.9 173.8 L602.8 177.5 L601.4 184.2 L599.2 198.0 L598.2 205.8 L598.0 210.5 L598.6 216.5 L599.9 221.0 L602.2 225.5 L604.8 228.8 L606.5 230.4 L609.2 232.3 L613.5 234.3 L618.8 235.6 L625.5 235.8 L640.0 233.8 L758.2 215.1 L766.0 213.6 L771.8 212.2 L776.8 210.5 L782.8 207.9 L788.0 205.1 L794.0 201.2 L798.5 197.9 L803.5 193.5 L807.2 189.8 L811.4 185.0 L815.5 179.5 L819.3 173.5 L822.2 168.2 L825.3 161.0 L827.4 154.5 L829.1 147.5 L830.6 139.2 L832.5 125.5 L833.0 120.0 L832.8 111.2 L831.9 105.2 L830.2 99.0 L827.2 91.5 L822.9 83.0 L822.1 80.5 L821.9 78.0 L822.7 75.5 L824.2 73.5 L827.0 71.4 L834.2 67.0 L838.1 63.5 L839.5 61.8 L841.4 58.5 L842.8 55.5 L844.0 51.8 L845.8 42.8 L848.6 25.5 L849.2 19.2 L849.2 14.0 L848.4 9.0 L847.4 5.8 L845.6 2.2Z" transform="translate(5 9)" fill="#3A0F78" fill-rule="evenodd"/><path d="M843.2 -0.8 L841.0 -2.9 L839.0 -4.3 L836.0 -5.9 L833.2 -7.0 L827.8 -8.0 L821.2 -8.0 L808.8 -6.3 L687.5 12.9 L679.2 14.6 L674.0 16.0 L664.2 19.8 L659.0 22.6 L653.8 26.0 L648.2 30.1 L643.2 34.5 L636.7 41.5 L633.3 45.8 L628.7 52.5 L625.3 58.5 L622.6 64.5 L620.8 69.8 L617.6 82.2 L615.2 97.5 L614.2 106.2 L614.2 115.0 L614.7 119.2 L615.8 125.0 L617.2 129.8 L619.6 135.5 L624.1 144.5 L625.0 147.0 L625.2 149.2 L624.6 152.0 L622.8 154.4 L620.2 156.3 L613.0 160.8 L608.6 165.0 L605.6 169.8 L603.9 173.8 L602.8 177.5 L601.4 184.2 L599.2 198.0 L598.2 205.8 L598.0 210.5 L598.6 216.5 L599.9 221.0 L602.2 225.5 L604.8 228.8 L606.5 230.4 L609.2 232.3 L613.5 234.3 L618.8 235.6 L625.5 235.8 L640.0 233.8 L758.2 215.1 L766.0 213.6 L771.8 212.2 L776.8 210.5 L782.8 207.9 L788.0 205.1 L794.0 201.2 L798.5 197.9 L803.5 193.5 L807.2 189.8 L811.4 185.0 L815.5 179.5 L819.3 173.5 L822.2 168.2 L825.3 161.0 L827.4 154.5 L829.1 147.5 L830.6 139.2 L832.5 125.5 L833.0 120.0 L832.8 111.2 L831.9 105.2 L830.2 99.0 L827.2 91.5 L822.9 83.0 L822.1 80.5 L821.9 78.0 L822.7 75.5 L824.2 73.5 L827.0 71.4 L834.2 67.0 L838.1 63.5 L839.5 61.8 L841.4 58.5 L842.8 55.5 L844.0 51.8 L845.8 42.8 L848.6 25.5 L849.2 19.2 L849.2 14.0 L848.4 9.0 L847.4 5.8 L845.6 2.2Z" fill="url(#gum)" fill-rule="evenodd"/><path d="M713.4 80.7 L838.9 60.8" fill="none" stroke="#2A0C52" stroke-width="9" stroke-linecap="round"/><path d="M733.4 147.0 L608.5 166.8" fill="none" stroke="#2A0C52" stroke-width="9" stroke-linecap="round"/></g></svg>