<svg xmlns="http://www.w3.org/2000/svg" viewBox="0 0 120 120"><rect x="53" y="0" width="14" height="7" rx="1.5" fill="#C6A6FF"/><rect x="94.89" y="18.11" width="8" height="6" rx="1.2" fill="#C6A6FF" transform="rotate(45 98.89 21.11)"/><circle cx="60" cy="61" r="51" fill="none" stroke="#342A47" stroke-width="3"/><line x1="60.00" y1="22.00" x2="60.00" y2="15.00" stroke="#22C55E" stroke-width="4"/><line x1="79.50" y1="27.23" x2="83.00" y2="21.16" stroke="#22C55E" stroke-width="4"/><line x1="93.77" y1="41.50" x2="99.84" y2="38.00" stroke="#22C55E" stroke-width="4"/><line x1="99.00" y1="61.00" x2="106.00" y2="61.00" stroke="#22C55E" stroke-width="4"/><line x1="93.77" y1="80.50" x2="99.84" y2="84.00" stroke="#22C55E" stroke-width="4"/><line x1="79.50" y1="94.77" x2="83.00" y2="100.84" stroke="#22C55E" stroke-width="4"/><line x1="60.00" y1="100.00" x2="60.00" y2="107.00" stroke="#22C55E" stroke-width="4"/><line x1="40.50" y1="94.77" x2="37.00" y2="100.84" stroke="#22C55E" stroke-width="4"/><path d="M21.35,78.85 A43,43 0 0 1 52.53,17.65" transform="translate(0 1)" fill="none" stroke="#A855F7" stroke-width="8"/><circle cx="64" cy="52" r="12" fill="none" stroke="#A855F7" stroke-width="9"/><path d="M52,52 L46,90" stroke="#A855F7" stroke-width="9"/><path d="M64,52 L34.56,35.00" stroke="#C6A6FF" stroke-width="3" stroke-linecap="round"/><circle cx="64" cy="52" r="3.4" fill="#C6A6FF"/></svg>
